<?xml version="1.0" encoding="UTF-8" standalone="no"?>
<!-- Created with Inkscape (http://www.inkscape.org/) -->

<svg
   width="10mm"
   height="10mm"
   viewBox="0 0 10 10"
   version="1.1"
   id="svg5"
   inkscape:version="1.1.1 (3bf5ae0d25, 2021-09-20)"
   sodipodi:docname="mstar.svg"
   xmlns:inkscape="http://www.inkscape.org/namespaces/inkscape"
   xmlns:sodipodi="http://sodipodi.sourceforge.net/DTD/sodipodi-0.dtd"
   xmlns="http://www.w3.org/2000/svg"
   xmlns:svg="http://www.w3.org/2000/svg">
  <sodipodi:namedview
     id="namedview7"
     pagecolor="#ffffff"
     bordercolor="#666666"
     borderopacity="1.0"
     inkscape:pageshadow="2"
     inkscape:pageopacity="0.0"
     inkscape:pagecheckerboard="0"
     inkscape:document-units="mm"
     showgrid="false"
     inkscape:zoom="9.2078563"
     inkscape:cx="6.4618732"
     inkscape:cy="22.317898"
     inkscape:window-width="1920"
     inkscape:window-height="1019"
     inkscape:window-x="0"
     inkscape:window-y="27"
     inkscape:window-maximized="1"
     inkscape:current-layer="layer1"
     inkscape:lockguides="false" />
  <defs
     id="defs2" />
  <g
     inkscape:label="Layer 1"
     inkscape:groupmode="layer"
     id="layer1">
    <path
       id="path1233"
       style="fill:#404040;stroke:#000000;stroke-width:1.88976;stroke-linecap:round;stroke-miterlimit:4;stroke-dasharray:none;stroke-dashoffset:1.74161;stroke-opacity:1;fill-opacity:0.00423386"
       inkscape:transform-center-y="-0.41656046"
       d="M 28.53125 21.339844 C 30.940241 19.248561 35.058223 16.069062 34.808594 15.300781 C 34.465276 14.244159 24.71327 14.356154 23.814453 13.703125 C 22.915636 13.050096 20.009436 3.7402344 18.898438 3.7402344 C 17.885573 3.7402344 15.383384 11.45856 14.267578 13.320312 L 18.898438 21.339844 L 28.53125 21.339844 z "
       transform="scale(0.26458333)" />
    <path
       id="path2156"
       style="fill:#404040;stroke:#000000;stroke-width:1.88976;stroke-linecap:round;stroke-miterlimit:4;stroke-dasharray:none;stroke-dashoffset:1.74161;stroke-opacity:0.996065"
       inkscape:transform-center-y="-0.41656046"
       d="M 28.53125 21.339844 L 18.898438 21.339844 L 14.267578 13.320312 C 14.15947 13.500693 14.059861 13.645443 13.980469 13.703125 C 13.081652 14.356154 3.3296456 14.244159 2.9863281 15.300781 C 2.6430106 16.357404 10.598089 22.000018 10.941406 23.056641 C 11.284724 24.113263 8.1656362 33.352831 9.0644531 34.005859 C 9.96327 34.658888 17.787439 28.835937 18.898438 28.835938 C 20.009436 28.835938 27.831652 34.658888 28.730469 34.005859 C 29.629286 33.352831 26.510198 24.113263 26.853516 23.056641 C 26.947204 22.768298 27.627135 22.12472 28.53125 21.339844 z "
       transform="scale(0.26458333)" />
  </g>
</svg>
